<?xml version="1.0" encoding="UTF-8"?>
<svg id="Layer_2" data-name="Layer 2" xmlns="http://www.w3.org/2000/svg" viewBox="0 0 1670.27 1669.8">
  <defs>
    <style>
      .cls-1 {
        fill: #020000;
      }
    </style>
  </defs>
  <g id="Layer_1-2" data-name="Layer 1">
    <path class="cls-1" d="M85.02,771.66l-.17-2.95c26.92,4.06,53.66,11.65,76.99,27.9,14.65,10.2,30.33,21.98,49.5,22.02l146.67.34c1.18-31.15,5.19-60.57,11.98-91.9l-142.87-37.98c-16.84-4.48-33.63,2.06-49,7.67-28.84,10.52-58.97,12.31-90.07,6.51l23.88-6.94c-23.04-9.64-37.57-26.69-50.36-48.07-14.1,4.18-27.5-1.9-32.34-14.02-4.62-11.03.13-23.51,9.88-29.84,10.75-6.8,24.15-3.65,33.3,5.5,21.29-12.09,42.04-19.44,67.17-16.11l-13.33-14.52-2.99-2.12,3.71-1.36,1.24,1.1c24,10.75,47.78,24.54,65.63,45.62,11.53,13.62,22.8,29.46,41.46,34.51l143.14,38.76c9.51-29.88,20.52-56.63,35.65-85.21l-125.71-72.51c-15.9-9.17-34.05-8.55-51.55-6.75-31.9,3.27-62.42-4.16-90.54-16.75l25.49-1.32c-19.46-15.47-28.99-35.44-35.44-59.21-14.21,1.13-25.09-7.34-27.5-19.81-2.44-12.65,5.37-25.07,17.47-28.23,11.82-3.35,23.87,2.64,30.1,14.31,24.04-6.62,45.34-7.83,69.12,1.62l-8.25-16.91c-.17-.34-.93-.76-2.44-1.77l1.67-2.91,1.69,2.29c22.73,16.85,41.99,38.33,54.44,65.03,6.59,14.53,13.84,31.2,28.49,39.72l128.99,75c17.01-26.76,34.72-49.64,56.51-73.62l-102.45-102.31c-14.28-14.26-33.23-17.1-51.93-20.52-29.98-5.48-56.75-20.35-80.03-39.39l25.24,5.69c-15.1-20.79-18.24-41.55-18.94-66.19-13.59-2.27-21.34-14.2-21.21-25.42.96-12.96,11.15-22.9,22.56-23.72,13.5-1.49,23.57,7.63,26.78,21.3,24.8.02,46.07,4.51,66.14,19.24l-3.55-22.61c18.61,22.69,31.66,48.14,37.19,77.16,3.07,16.14,4.71,34.7,17.06,47.1l106.18,106.66c23.53-21.13,46.94-39.36,73.19-55.93l-74.21-127.99c-8.54-14.72-24.75-22.02-39.24-28.85-27.79-12.52-49.55-32.67-67.44-55.88l-2.42-1.66,2.97-1.75c.99,1.38,1.36,1.99,1.61,2.11l17.5,8.83c-9.64-24.11-6.91-44.82-1.51-68.91-12.27-6.41-17.86-19.7-13.49-30.98,4.35-11.93,15.92-18.7,28.55-16.18,11.86,1.89,20.25,13.46,19.47,27.35,24.29,6.58,44.09,16.87,59.37,36.55l1.33-25.68c12.43,27.85,19.35,57.48,16.42,88.53-1.61,17.08-2.98,35.48,6.13,51.31l73.06,126.91c27.93-14.27,55-25.79,85.36-35.37l-38.19-141.6c-5.13-19.01-20.21-30.27-34.2-42.15-22.97-19.51-38.5-45.39-48.72-73.22l18.99,18.49c-3.96-23.84,3.54-45.86,16.27-68.31-10.62-9.3-12.5-23.44-4.84-33.62,7.54-10.57,21.17-13.9,32.92-7.06,10.03,5.47,14.17,18.34,10.27,30.72,20.93,12.71,37.45,26.49,47.79,50.05l7.67-24.4c4.97,29.23,4.22,59.55-6.11,88.36-5.85,16.31-13.07,33.75-8.31,51.66l37.97,142.88c30.96-7.08,59.95-10.58,91.31-12.2l-.46-147.95c-.06-18.72-12.29-33.81-21.87-48.05-16.64-24.74-25.2-52.17-28.3-82.59l13.82,23.05c2.59-25.46,15.73-44.77,33.18-62.43-7.07-11.44-6.11-25.47,3.07-33.22,8.77-8.89,23.55-8.14,32.07-1.32,10.57,8.52,10.69,22.42,4.6,34.54,17.03,18.2,30.44,35.84,32.78,61.54l13-20.18c-2.14,30.94-12.37,58.94-29.55,83.62-9.72,13.96-20.17,29.02-20.2,47.3l-.24,145.69c31.03,1.39,60.5,5.04,92.06,12.01l37.75-141.82c4.86-18.26-2.29-35.4-8.23-52.02-9.98-27.91-11.04-56.89-6.14-87.18l7.45,23.89c9.16-22.63,26.2-38.11,47.88-50.67-3.8-13.31.96-26.18,12.05-31.94,10.88-5.86,24.44-1.51,31.58,8.05,6.61,10.65,5.1,24.68-5.29,33.74,12.55,21.8,19.73,42.71,16.4,68.47l18.77-18.6c-10.72,29.62-27.52,55.2-51.52,75.34-13.13,11.02-26.76,22.81-31.53,40.5l-37.91,140.41c30.05,9.47,57.53,21.2,85.67,35.3l72.38-125.39c8.91-17.5,8.32-35.22,6.42-54.19-2.97-29.66,4.16-58.54,16.38-86.55l1.72,25.47c14.61-19.6,34.8-29.52,58.75-36.07-.33-13.47,7.2-24.71,19.36-27.51,12.12-3.17,24.12,4.62,28.5,15,4.89,12.99-1.25,24.71-13.21,32.1,5.74,23.8,8,47.16-2.28,69.72l21.1-10.45c-17.13,25.17-39.2,44.16-66.11,56.76-16.03,7.5-32.84,15.52-42.3,31.86l-72.77,125.63c26.35,16.47,49.2,34.35,73.38,55.89l104.32-104.52c12.76-12.79,15.25-31.37,18.28-48.05,5.47-30.1,19.53-55.79,38.3-79.62l-5.57,25.23c19.29-15.21,41.26-20.48,66.84-20.03,3.76-13.42,13.64-22.67,26-21.9,13.57.89,23.65,11.71,23.43,24.11.34,13.02-8.09,22.9-21.38,25.93.12,25.53-4.42,47.46-19.88,66.66l26.03-6.41c-24.87,20.23-51.64,34.17-82.03,39.58-17.03,3.04-34.81,5.86-47.78,18.78l-103.55,103.24c21.27,23.28,39.01,46.14,56.41,73.24l125.27-72.42c16.97-9.81,24.97-26.82,32.87-43.56,12.47-26.42,31.25-47.79,55.9-65.04l-10.33,21.42c22.58-10.51,45.93-8.24,69.79-2.56,7.04-11.77,19.71-18.24,31.02-13.68,12.51,3.81,18.32,16.54,16.49,28.14-2.95,12.1-13.33,20.91-27.31,20.06-7.02,23.6-15.88,44.79-36.57,59.16l25.63,1.12c-27.59,12.56-57.73,19.95-89.05,16.93-17.78-1.71-35.9-2.91-52.07,6.4l-125.31,72.15c14.15,27.53,25.81,54.5,35.58,85.22l142.86-38.56c16.78-4.53,28.2-18.69,38.72-31.3,20.13-24.12,45.93-40.06,74.9-51.06l-19.23,19.42c25.75-3.29,46.99,3.29,68.8,16.19,9.02-10.41,23.29-12.52,32.94-6.01,11.86,7.33,13.99,21.6,8.65,32.74-5.24,11.57-18.48,14.54-31.71,12.19-12.72,21.73-28.09,39.35-50.68,47.41l25.46,7.01c-30.91,5.64-60.47,4.2-88.9-5.8-15.91-5.59-33.11-13.12-50.63-8.47l-142.68,37.85c6.98,31.43,10.92,61.07,12.13,92.24l146.59-.38c18.71-.05,33.69-11.96,48.03-21.59,23.72-15.92,49.65-25.51,79.76-27.78l-19.49,13.41c24.42,1.21,43.92,15.03,62.07,32.32,12.45-6.3,26.15-6.11,34.8,4.45,6.79,8.49,7.65,23.22-1.32,32.05-7.6,9.13-21.67,10.14-33.23,3.18-17.28,17.49-35.24,29.88-61.01,33.45l21.59,13.54c-30.79-3.29-58.81-12.09-83.8-29.14-13.81-9.42-28.67-21.07-46.86-21.12l-147.12-.42c-1.09,32.04-5.44,61.47-11.65,92.16l142.87,37.85c17.5,4.64,34.79-3.37,50.52-8.91,28.75-10.14,58.53-10.52,87.88-6.03l-25.41,7.92c23.65,8.8,38.05,26.2,51.02,47.78,13.15-4.82,26.07,1.21,31.5,11.36,6.15,12.11,1.62,25.49-8.58,32.34-10.4,6.39-23.51,4.25-33.34-5.1-20.78,11.41-41.74,19.16-64.43,16.2l-.92,2.03c3.46,3.38,9.15,9.4,12.44,15.12-26.96-10.62-50.49-25.15-68.66-46.38-12.13-14.17-23.62-29.84-43.1-35.09l-140.38-37.79c-9.74,30.65-20.81,57.31-35.61,85.4l120.55,69.71c18.19,10.52,36.95,11.32,57.44,8.98,30.5-3.48,60.13,4.59,87.7,16.12l-25.41,1.5c19.45,14.92,29.46,35.67,36.3,59.4,14.4-.55,25.09,7.43,27.41,19.75,2.46,11.81-4.51,24.4-15.9,28.01-11.74,4.27-24.7-.91-30.93-13.36-24.08,5.59-44.95,7.99-69.47-1.48l7.43,15.33c.11.23.42.5.96,1.11l1.1,1.24,1.11,1.23c1.1,2.16,1.38,4.91-1.59,1.66l-1.13-.97-1.54-1.32c-.13-.11-.4-.13-.74-.19-22.23-17.54-41.51-39.12-53.61-65.94-6.74-14.71-14.29-30.6-29.06-39.15l-126.76-73.37c-17.08,27.07-35.01,49.95-55.94,73.22l103.65,103.2c13.17,13.11,32.13,15.48,49.31,18.7,29.42,5.51,55.19,19.23,79.29,38.82l-21.51-5.04-2.72,1.79c13.85,17.41,17.93,39.48,18.04,63.37,13.57,4.07,22.99,14.01,21.41,27.91-.68,11.99-11.49,22.4-24.85,22.58-11.47-.41-21.46-9.17-24.5-21.76-24.86.43-45.33-4.41-65.65-18.39l2.92,17.07c.06.35.71,1.06,1.31,1.79l-1.34,3.64-1.66-3.09c-17.22-22.68-30.66-48.29-35.61-77.56-2.5-17.45-6.76-35.53-19.72-48.53l-101.23-101.46c-23.8,21.21-47.52,39.94-73.81,56.44l73.58,126.56c9.08,15.63,26.62,23.01,41.99,30.24,26.82,12.23,46.63,32.54,64.6,54.32l1.57,1.66-2.19,1.54-1-1.45-18.73-9.44c9.55,23.43,7.65,45.28,1.6,69.04,12.37,6.7,18.06,19.04,13.81,31.99-4.41,11.22-16.18,18.34-29.72,15.22-10.47-2.44-18.51-13.67-18.5-26.82-23.62-7.35-44.97-16.37-59.07-37.06l-.9,26.9c-11.73-27.15-19.42-55.96-17.12-86.47,1.35-17.88,4.31-36.68-5.08-53.02l-72.91-126.84c-28.25,14.43-55.42,26-85.5,35.46l38.94,143c4.66,17.13,20.39,28.25,32.89,39.08,23.04,19.95,38.24,44.9,49.02,73.18l-19.28-17.45c2.93,24.97-3.67,45.31-16.22,66.7,10.21,9.94,12.82,23.65,5.39,34.08-6.89,10.05-20.73,14.01-31.31,8.58-12.39-5.29-15.14-18.94-12.92-32.38-21.5-12.27-37.74-26.13-47.41-49.98l-7.45,24.44c-5.05-30.63-3.74-60.14,6.26-88.5,5.76-16.34,12.99-33.27,8.21-51.24l-37.57-141.27c-31.82,7.3-61.51,10.83-92.6,12.26l.33,145.44c.04,18.19,10.84,33.18,20.52,47.12,16.92,24.35,26.3,51.51,29.28,82.32l-13.16-18.74c-2.76,25.47-16.22,43.42-33,60.97,7.12,12.61,5.62,26.67-5.19,34.75-9.05,7.04-23.97,6.76-32.85-2.9-7.72-7.93-7.76-21.25-1.76-32.33-17.47-17.88-29.67-35.82-33.09-61.66l-13.86,23.48c3.21-30.74,11.72-59.1,28.92-84.06,9.95-14.45,21.61-29.47,21.65-48.47l.32-145.95c-31.98-1.5-61.49-5.41-92.18-12.23l-37.49,140.84c-4.7,17.65,1.72,34.69,7.7,50.85,10.75,29.06,11.36,59.81,6.87,89.4l-7.88-23.93c-9.05,23.31-25.59,37.39-47.47,50.05,3.88,13.35-1.64,26.83-12.5,31.83-11.71,6.11-25,.92-31.39-8.37-7.16-11.29-4.4-24.46,5.38-34.09-12.26-21.97-20.41-43.94-15.49-68.31-5.99,5.22-10.32,9.58-17.17,13.46,10.63-28.78,27.18-51.21,48.97-69.6,13.21-11.15,26.83-22.97,31.61-40.67l37.7-139.75c-29.95-9.63-57.51-20.95-85.55-35.87l-72.26,125.56c-9.59,16.66-7.98,35.31-6.28,53.35,2.91,30.89-4.82,59.86-16.56,87.75l-1.19-26.54c-13.5,20.32-35.14,29.9-59.16,36.78.18,13.92-8.47,25.68-21.14,27.66-12.22,1.84-24.12-5.87-27.64-18.31-3.3-11.17,3-23.47,14.73-29.19-6.74-23.87-8.11-45.51,1.18-69.27l-21.85,10.82c17.8-24.77,39.57-44.83,67.16-57.55,16.72-7.71,33.45-16.23,43.2-33.08l71.69-123.81c-26.47-17.42-49.91-35.42-73.54-56.72l-102.22,102.45c-13.67,13.7-16.75,32.25-19.95,50.35-5.32,30.06-20.08,56.21-38.46,79.62l5.19-24.88c-20.24,15.47-41.33,19.25-66.72,19.52-2.62,13.61-13.45,22.37-26.15,21.26-12.51-1.32-22.52-11.81-22.98-24.4.08-11.87,8.26-22.38,21.69-25.22.39-25,4.43-48.06,20.77-67.06l-25.59,5.71c23.88-19.98,50.96-33.62,81.76-38.99,16.32-2.84,33.85-5.8,46.22-18.12l103.58-103.25c-21.25-23.51-39.28-47.24-56.32-73.5l-124.14,71.92c-15.42,8.93-24.05,23.96-31.06,39.32-12.74,27.93-31.53,51.35-57.67,69.26l8.71-20.17c-22.95,9.94-44.85,7.66-68.79,1.93-7.33,11.47-19.46,17.75-31.09,13.7-11.56-4.75-18.94-16.68-16.25-29.03,2.9-11.49,13.81-20.56,27.65-19.73,6.79-23.61,16.45-44.67,36.41-58.77l-26.8-1.28c26.87-11.5,54.55-18.98,84.62-17.2,17.66,1.04,37.4,5.04,53.91-4.42l128.71-73.74c-14.49-27.54-25.66-54.29-35.44-85.2l-140.81,37.79c-18.19,4.88-29.77,19.39-41.12,32.58-19.48,22.62-43.22,39.12-72.03,49.26l15.47-17.82c-23.47,3.92-45.15-3.53-67.23-16.12-10.39,10.06-24.09,12.65-35.27,4.29-9.02-7.19-12.33-20.78-6.15-31.55,5.61-10.95,18.58-15.09,31.4-11.51,12.41-20.59,26.95-38.53,50.62-47.21l-25.17-8.07c29.66-5.2,60.63-4.17,89.99,6.69,15.73,5.82,32.69,12.28,49.94,7.69l141.92-37.8c-6.8-31.29-10.56-59.92-11.77-91.47l-147.07.29c-18.52.04-33.32,11.16-47.29,20.89-25.27,17.59-54.07,26.51-85.23,29.61l23.17-13.66c-25.63-2.96-43.57-15.66-61.65-33.09-11.78,6.34-26.28,5.7-34.07-3.91-8.13-9.71-7.63-24.41.85-32.82,8.26-9.46,22.28-9.6,33.22-2.88,17.78-17.99,37.3-30.58,61.43-33.11l-16.29-10.56ZM1219.85,835.4c0-212.14-172.02-384.12-384.22-384.12s-384.22,171.98-384.22,384.12,172.02,384.12,384.22,384.12,384.22-171.98,384.22-384.12ZM1532.93,1075.77c-.82.31-3.3,1.27-2.18.83l2.18-.83ZM1393.69,1315.64c.33-.77-.64,1.47-.89,2.04l.89-2.04Z"/>
  </g>
</svg>